<?xml version="1.0" encoding="UTF-8"?>
<svg id="Capa_2" data-name="Capa 2" xmlns="http://www.w3.org/2000/svg" viewBox="0 0 720 898.37">
  <defs>
    <style>
      .cls-1 {
        fill: #fff;
      }
    </style>
  </defs>
  <g id="mesa_2">
    <g>
      <path class="cls-1" d="M646.15,375.58c-20.38,1.74-39.43,5.82-57.18,12.22-17.76,6.41-37.4,13.39-58.92,20.95-9.31-15.71-22.26-29.53-38.84-41.46-16.59-11.92-33.32-18.77-50.19-20.51,6.98-5.81,15.71-13.38,26.19-22.7,10.47-9.3,21.09-19.78,31.86-31.43,10.76-11.63,21.09-24.29,30.99-37.97,9.89-13.67,17.75-28.07,23.57-43.21,5.81-15.12,6.25-31.13,1.31-48.01-4.95-16.87-13.39-32.43-25.31-46.7-11.94-14.25-26.34-26.19-43.21-35.79-16.89-9.6-34.35-14.98-52.38-16.15-22.7-1.16-47.44,2.62-74.2,11.35-26.77,8.73-53.55,21.1-80.31,37.1-26.77,16.01-52.81,34.34-78.13,54.99-25.31,20.66-47.87,42.05-67.65,64.16-19.79,22.12-35.94,43.95-48.45,65.47-12.52,21.54-19.35,41.03-20.51,58.49-1.17,20.38,3.78,37.1,14.84,50.19,11.05,13.1,23.7,22.26,37.97,27.5,14.25,5.24,27.78,6.41,40.59,3.49,12.79-2.91,20.36-10.48,22.7-22.7-20.95,2.92-33.17-1.74-36.66-13.97-3.49-12.22,0-28.81,10.47-49.76,10.48-20.95,27.06-44.52,49.76-70.71,22.7-26.19,49.46-51.5,80.31-75.94-8.73,18.63-19.51,42.77-32.3,72.45-12.81,29.68-25.62,60.38-38.41,92.09-12.81,31.72-24.88,62.85-36.23,93.4-11.35,30.55-20.23,56.02-26.62,76.38-3.49,9.9-2.92,18.48,1.75,25.75,4.65,7.29,11.05,12.96,19.2,17.02,6.4,2.92,13.23,4.36,20.51,4.36s14.69-4.94,22.26-14.84c4.06-5.81,11.05-14.54,20.95-26.19,9.89-11.63,21.39-24.14,34.48-37.53,13.09-13.38,27.06-27.06,41.9-41.03s29.68-26.19,44.52-36.66c14.84-10.48,28.94-18.33,42.34-23.57,13.38-5.24,24.73-6.11,34.04-2.62,4.65,1.74,8.14,4.95,10.47,9.6,2.32,4.66,3.93,9.31,4.8,13.97,.87,4.67,1.16,9.03,.87,13.1-.3,4.08-.74,6.41-1.31,6.98-22.7,12.22-47.87,27.93-75.51,47.14-27.65,19.2-55.14,40.3-82.49,63.29-27.36,23-53.25,47.29-77.69,72.89-24.44,25.62-44.82,50.63-61.1,75.07-18.04,27.93-26.92,52.08-26.62,72.45,.29,20.36,7.27,35.35,20.95,44.96,13.67,9.6,32.73,12.79,57.18,9.6,24.44-3.21,51.5-14.41,81.18-33.61,31.42-19.79,61.68-43.21,90.78-70.27,29.09-27.06,55.13-55.72,78.13-85.98,22.98-30.25,42.19-60.8,57.61-91.66,15.41-30.84,24.88-60.23,28.37-88.16,11.05-5.81,25.6-11.92,43.65-18.33,18.03-6.4,36.36-11.63,54.99-15.71,5.81-1.16,10.17-4.65,13.09-10.47,2.9-5.81,4.5-12.07,4.8-18.77,.29-6.68-.3-12.51-1.75-17.46-1.46-4.94-3.93-7.12-7.42-6.54Zm-225.21-106.93c-18.04,20.66-36.23,40.3-54.56,58.92-18.33,18.63-35.35,35.5-51.07,50.63-15.71,15.14-27.06,26.49-34.04,34.04,5.81-13.38,12.36-28.5,19.64-45.39,7.27-16.87,14.69-34.18,22.26-51.94,7.56-17.74,15.28-35.2,23.13-52.37,7.86-17.16,15.56-33.02,23.13-47.57,2.32-4.65,2.62-9.3,.87-13.97-1.75-4.65-4.66-8.86-8.73-12.66-4.08-3.78-8.73-6.83-13.97-9.16-5.24-2.32-9.6-3.78-13.09-4.37,12.22-8.73,25.45-16.59,39.72-23.57,14.25-6.98,28.07-12.66,41.46-17.02,13.38-4.36,25.6-7.27,36.66-8.73,11.05-1.45,19.2-.44,24.44,3.06,11.63,6.98,15.85,17.76,12.66,32.3-3.21,14.55-10.91,30.99-23.13,49.32-12.22,18.33-27.36,37.84-45.39,58.49Zm-16.15,292.86c-9.6,13.97-21.25,29.11-34.92,45.39-13.68,16.3-28.67,32.73-44.96,49.32-16.3,16.59-32.3,32.16-48.01,46.7-15.71,14.55-30.55,27.21-44.52,37.97-13.97,10.76-25.62,18.18-34.92,22.26,4.65-18.03,15.71-38.41,33.17-61.11,17.46-22.69,37.54-45.09,60.23-67.21,22.7-22.11,46.11-42.77,70.27-61.98,24.14-19.2,44.96-34.33,62.41-45.39-2.92,8.73-9.16,20.08-18.77,34.04Z"/>
      <path class="cls-1" d="M715.55,363.83v-.03c-9.52-32.16-36.34-52.93-68.34-52.93-2.66,0-5.35,.15-7.75,.43-25.44,2.27-49.8,7.56-72.42,15.72-5.2,1.88-10.59,3.82-16.16,5.8l-.54-.5c11.09-12.31,21.86-25.66,32.06-39.76,13.12-18.13,23.73-37.61,31.54-57.92,10.98-28.57,11.98-58.63,2.99-89.37-7.44-25.34-20.14-48.89-37.78-70-16.85-20.12-37.31-37.1-60.81-50.47C492.99,10.37,466.03,2.14,438.17,.33l-.85-.05c-30.32-1.54-63.35,3.3-97.52,14.45-31.24,10.19-62.68,24.68-93.44,43.08-29.29,17.52-58.17,37.83-85.82,60.39-27.82,22.71-53.04,46.64-74.95,71.13-22.62,25.28-41.51,50.88-56.15,76.08C11.68,295.95,2.15,324.3,.3,352.14l-.03,.53c-2.12,36.82,8.25,69.86,29.96,95.57,18.32,21.71,40.22,37.35,65.07,46.48,.7,.26,1.4,.51,2.1,.76-2.83,8.34-5.37,16.07-7.55,23.01-9.67,28.42-6.6,57.14,8.62,80.86,7.6,11.9,17.17,22.04,28.54,30.25-10.91,13.51-20.84,26.98-29.65,40.19l-.45,.7c-25.36,39.26-37.45,74.73-36.96,108.43,.58,40.99,17.77,75.41,48.42,96.92,21.29,14.96,47.19,22.54,76.99,22.54h.02c8.21,0,16.86-.59,25.72-1.74,34.32-4.5,69.51-18.64,107.5-43.18,34.57-21.8,68.24-47.86,100.07-77.45,31.66-29.45,60.45-61.15,85.57-94.21,25.29-33.3,46.81-67.56,63.96-101.86,12.02-24.05,21.21-48.04,27.35-71.39,2.7-1.02,5.53-2.05,8.47-3.09,15.3-5.43,31.07-9.94,46.77-13.4,25.24-5.26,45.66-21.16,57.5-44.79,6.96-13.92,10.85-29.03,11.56-44.91,.59-13.7-.87-26.66-4.33-38.51Zm-15.03,37.66c-.59,13.13-3.8,25.61-9.53,37.08-9.13,18.21-24.8,30.46-44.24,34.52-16.59,3.65-33.14,8.39-49.2,14.08-4.87,1.73-9.42,3.42-13.66,5.07l-4.69,1.83-1.2,4.89c-5.76,23.5-14.89,47.82-27.12,72.29-16.61,33.22-37.49,66.46-62.06,98.8-24.45,32.18-52.49,63.05-83.34,91.74-30.95,28.78-63.66,54.09-97.3,75.31-35.61,23-68.19,36.18-99.59,40.3-8.03,1.05-15.83,1.58-23.2,1.58h-.02c-25.73,0-47.89-6.4-65.85-19.02-25.42-17.84-39.69-46.73-40.18-81.34-.44-29.75,10.64-61.69,33.83-97.59l.38-.58c10.2-15.3,22.06-31.07,35.27-46.87l7.37-8.81-9.93-5.78c-12.91-7.51-23.49-17.63-31.45-30.11-11.98-18.67-14.33-41.45-6.53-64.37,3-9.52,6.59-20.32,10.68-32.12l3.37-9.73-9.93-2.77c-3.47-.97-6.97-2.1-10.41-3.36-21.66-7.95-40.82-21.68-56.95-40.79-18.46-21.85-27.25-50.19-25.43-81.92l.03-.44c1.64-24.74,10.33-50.33,26.54-78.23,13.98-24.07,32.1-48.59,53.84-72.9,21.24-23.74,45.72-46.97,72.76-69.04,26.93-21.97,55.03-41.74,83.52-58.78,29.52-17.65,59.63-31.54,89.5-41.28,28.03-9.14,55-13.78,80.15-13.78,3.49,0,6.98,.09,10.3,.26l.71,.04c24.86,1.62,49.02,9.01,71.8,21.97,21.49,12.23,40.18,27.73,55.53,46.06,15.91,19.05,27.36,40.25,34.04,63.01,7.77,26.56,6.93,52.46-2.48,76.97-7.21,18.74-17.02,36.75-29.15,53.51-10.93,15.1-22.51,29.28-34.43,42.17l-9.79,10.46,7.79,6.59c3.95,3.34,7.79,6.85,11.39,10.42l4.33,4.29,5.74-2.04c7.6-2.71,14.91-5.33,21.88-7.85,21.05-7.59,43.78-12.52,67.8-14.67,1.91-.22,3.86-.33,5.79-.33,23.2,0,42.72,15.31,49.74,39.02,2.87,9.82,4.07,20.67,3.57,32.23Z"/>
    </g>
  </g>
</svg>